<svg width="46" height="17" viewBox="0 0 46 17" fill="none" xmlns="http://www.w3.org/2000/svg">
<path d="M8.90744 16.6438V9.43975H16.5352L17.3535 10.5066L18.199 9.43975H45.8858V16.1471C45.8858 16.1471 45.1617 16.6366 44.3243 16.6439H28.9936L28.0709 15.5082V16.6439H25.0473V14.7053C25.0473 14.7053 24.6343 14.9759 23.7414 14.9759H22.7122V16.6439H18.1343L17.3171 15.5541L16.4873 16.6439L8.90744 16.6438ZM0 4.01014L1.72008 0H4.69481L5.67093 2.24632V0H9.36877L9.94989 1.62357L10.5133 0H27.1127V0.816223C27.1127 0.816223 27.9853 0 29.4194 0L34.8053 0.0188602L35.7646 2.23574V0H38.8592L39.7109 1.27342V0H42.8338V7.20406H39.7109L38.8947 5.92645V7.20401H34.3481L33.8909 6.06841H32.6686L32.2188 7.20401H29.1355C27.9015 7.20401 27.1127 6.40449 27.1127 6.40449V7.20401H22.4638L21.5411 6.06846V7.20406H4.25413L3.79721 6.06846H2.57876L2.1252 7.20401H0V4.01014Z" fill="white"/>
<path d="M2.32889 0.888118L0.00888062 6.28226H1.51934L1.94741 5.20209H4.43601L4.86183 6.28226H6.40559L4.0877 0.888118H2.32889ZM3.18725 2.14346L3.94579 4.03102H2.4265L3.18725 2.14346ZM6.56526 6.28134V0.887197L8.71167 0.895156L9.96011 4.37299L11.1786 0.887197H13.3079V6.28134H11.9594V2.30671L10.5299 6.28134H9.34725L7.9138 2.30671V6.28134H6.56526ZM14.2306 6.28134V0.887197H18.6311V2.09378H15.5934V3.01644H18.5601V4.15209H15.5934V5.11027H18.6311V6.28134H14.2306ZM19.4119 0.888118V6.28226H20.7604V4.3659H21.3282L22.9451 6.28226H24.5931L22.8187 4.29492C23.5469 4.23347 24.2981 3.60847 24.2981 2.6381C24.2981 1.503 23.4071 0.888118 22.4128 0.888118H19.4119ZM20.7604 2.0947H22.3019C22.6717 2.0947 22.9407 2.38395 22.9407 2.66248C22.9407 3.02082 22.5921 3.2303 22.3219 3.2303H20.7604V2.0947ZM26.2255 6.28134H24.8486V0.887197H26.2255V6.28134ZM29.4904 6.28134H29.1932C27.7552 6.28134 26.882 5.14836 26.882 3.60644C26.882 2.02639 27.7454 0.887197 29.5613 0.887197H31.0518V2.16476H29.5069C28.7697 2.16476 28.2483 2.74008 28.2483 3.61974C28.2483 4.6644 28.8445 5.10314 29.7033 5.10314H30.0582L29.4904 6.28134ZM32.4248 0.888118L30.1048 6.28226H31.6152L32.0433 5.20209H34.5319L34.9577 6.28226H36.5015L34.1837 0.888118H32.4248ZM33.2832 2.14346L34.0417 4.03102H32.5224L33.2832 2.14346ZM36.6589 6.28134V0.887197H38.3734L40.5626 4.27629V0.887197H41.9111V6.28134H40.2521L38.0075 2.80356V6.28134H36.6589ZM9.83016 15.7211V10.3269H14.2306V11.5335H11.1929V12.4562H14.1596V13.5918H11.1929V14.55H14.2306V15.7211H9.83016ZM31.3926 15.7211V10.3269H35.793V11.5335H32.7553V12.4562H35.7079V13.5918H32.7552V14.55H35.793V15.7211H31.3926ZM14.4014 15.7211L16.544 13.0573L14.3504 10.3269H16.0494L17.3558 12.0148L18.6667 10.3269H20.2991L18.1344 13.024L20.2808 15.7211H18.5822L17.3137 14.0598L16.076 15.7211H14.4014ZM20.441 10.3279V15.722H21.825V14.0186H23.2445C24.4456 14.0186 25.3561 13.3814 25.3561 12.1422C25.3561 11.1156 24.642 10.3279 23.4197 10.3279H20.441ZM21.825 11.5478H23.3199C23.708 11.5478 23.9853 11.7856 23.9853 12.1688C23.9853 12.5288 23.7094 12.7898 23.3155 12.7898H21.825V11.5478ZM25.9416 10.3269V15.7211H27.2901V13.8047H27.858L29.4749 15.7211H31.1228L29.3485 13.7338C30.0766 13.6723 30.8278 13.0473 30.8278 12.0769C30.8278 10.9418 29.9369 10.3269 28.9426 10.3269H25.9416ZM27.2901 11.5335H28.8316C29.2014 11.5335 29.4704 11.8228 29.4704 12.1014C29.4704 12.4597 29.1219 12.6691 28.8516 12.6691H27.2901V11.5335ZM36.4176 15.7211V14.55H39.1165C39.5158 14.55 39.6887 14.3342 39.6887 14.0975C39.6887 13.8707 39.5163 13.6415 39.1165 13.6415H37.8969C36.8368 13.6415 36.2464 12.9957 36.2464 12.026C36.2464 11.161 36.787 10.3269 38.3624 10.3269H40.9884L40.4207 11.5407H38.1494C37.7153 11.5407 37.5816 11.7685 37.5816 11.986C37.5816 12.2096 37.7468 12.4562 38.0784 12.4562H39.356C40.5377 12.4562 41.0505 13.1266 41.0505 14.0044C41.0505 14.9482 40.4791 15.7211 39.2917 15.7211H36.4176ZM41.3671 15.7211V14.55H44.0659C44.4653 14.55 44.6381 14.3342 44.6381 14.0975C44.6381 13.8707 44.4658 13.6415 44.0659 13.6415H42.8463C41.7862 13.6415 41.1958 12.9957 41.1958 12.026C41.1958 11.161 41.7365 10.3269 43.3118 10.3269H45.9379L45.3701 11.5407H43.0989C42.6647 11.5407 42.531 11.7685 42.531 11.986C42.531 12.2096 42.6962 12.4562 43.0279 12.4562H44.3054C45.4872 12.4562 46 13.1266 46 14.0044C46 14.9482 45.4286 15.7211 44.2411 15.7211H41.3671Z" fill="#576067"/>
</svg>
