<svg width="53" height="21" viewBox="0 0 53 21" fill="none" xmlns="http://www.w3.org/2000/svg">
<g clip-path="url(#clip0_3503_193)">
<path d="M7.77901 4.8835C8.37555 4.68661 9.01186 4.58161 9.67203 4.58161C12.5619 4.58161 14.9746 6.61347 15.5261 9.31475L19.6223 8.48783C18.6838 3.89907 14.5849 0.444374 9.67203 0.444374C8.54524 0.444374 7.46616 0.625509 6.45337 0.961528L7.77901 4.8835Z" fill="#DFDFDF"/>
<path d="M2.94572 18.025L5.71631 14.9247C4.48081 13.8405 3.70133 12.2575 3.70133 10.4934C3.70133 8.73196 4.48081 7.149 5.71631 6.06744L2.94572 2.96452C0.845893 4.80737 -0.479752 7.49814 -0.479752 10.4934C-0.479752 13.4914 0.845893 16.1821 2.94572 18.025" fill="#9D9DA9"/>
<path d="M15.5261 11.68C14.972 14.3787 12.5619 16.4079 9.67469 16.4079C9.01186 16.4079 8.3729 16.3029 7.77901 16.1034L6.45337 20.0306C7.46616 20.364 8.54789 20.5451 9.67469 20.5451C14.5822 20.5451 18.6785 17.0957 19.6223 12.5122L15.5261 11.68Z" fill="#414145"/>
<path d="M23.2042 15.0533C23.069 14.8381 22.8887 14.4942 22.7774 14.2395C22.1278 12.7484 22.0986 11.2049 22.6448 9.72427C23.2466 8.0993 24.3973 6.85761 25.8847 6.22232C27.7538 5.4269 29.8192 5.58179 31.6115 6.63447C32.7489 7.28026 33.5548 8.27781 34.1673 9.69014C34.2442 9.87128 34.3131 10.0629 34.3821 10.2283L23.2042 15.0533ZM26.9372 8.61908C25.6089 9.18349 24.9249 10.4173 25.0681 11.8611L30.6888 9.46438C29.7211 8.34082 28.4644 7.96804 26.9372 8.61908V8.61908ZM31.3887 13.8326C31.3861 13.8326 31.3861 13.8352 31.3861 13.8352L31.2694 13.7565C30.9327 14.2946 30.4104 14.733 29.7502 15.0166C28.4935 15.5573 27.3296 15.4182 26.4918 14.691L26.4149 14.8066C26.4149 14.8066 26.4149 14.8039 26.4123 14.8039L24.9859 16.9172C25.3411 17.1613 25.7203 17.3661 26.118 17.5315C27.6928 18.1799 29.3048 18.1484 30.893 17.4658C32.041 16.9723 32.9424 16.2215 33.5575 15.2686L31.3887 13.8326ZM38.2874 3.11415V14.8591L40.1327 15.5993L39.0854 18.0197L37.0492 17.1797C36.5932 16.9828 36.2804 16.6835 36.0471 16.3449C35.8217 16.001 35.6547 15.5258 35.6547 14.8906V3.11415H38.2874ZM43.065 11.869C43.065 10.8688 43.5131 9.97103 44.2183 9.362L42.3253 7.27238C41.0421 8.39594 40.2335 10.0367 40.2335 11.8638C40.2308 13.6935 41.0394 15.3368 42.32 16.4604L44.2104 14.3708C43.5078 13.7591 43.065 12.8666 43.065 11.869V11.869ZM46.4269 15.2003C46.0557 15.2003 45.6951 15.1373 45.361 15.0271L44.457 17.6863C45.0747 17.8911 45.7349 18.004 46.4242 18.004C49.4202 18.0066 51.9203 15.9012 52.501 13.1055L49.7224 12.5437C49.4069 14.0636 48.0521 15.203 46.4269 15.2003V15.2003ZM46.4348 5.73404C45.7481 5.73404 45.088 5.8443 44.4702 6.04644L45.3663 8.70834C45.7031 8.59808 46.061 8.5377 46.4322 8.5377C48.0601 8.54033 49.4175 9.68489 49.7251 11.2075L52.5036 10.6509C51.9336 7.84991 49.4334 5.73667 46.4348 5.73404V5.73404Z" fill="white"/>
</g>
<defs>
<clipPath id="clip0_3503_193">
<rect width="53" height="21" fill="white"/>
</clipPath>
</defs>
</svg>
